<?xml version="1.0" encoding="UTF-8" standalone="no"?>
<svg
   xmlns:dc="http://purl.org/dc/elements/1.1/"
   xmlns:cc="http://creativecommons.org/ns#"
   xmlns:rdf="http://www.w3.org/1999/02/22-rdf-syntax-ns#"
   xmlns:svg="http://www.w3.org/2000/svg"
   xmlns="http://www.w3.org/2000/svg"
   version="1.1"
   id="svg2"
   width="35"
   height="35.136303"
   viewBox="0 0 35 35.136303">
  <metadata
     id="metadata8">
    <rdf:RDF>
      <cc:Work
         rdf:about="">
        <dc:format>image/svg+xml</dc:format>
        <dc:type
           rdf:resource="http://purl.org/dc/dcmitype/StillImage" />
        <dc:title></dc:title>
      </cc:Work>
    </rdf:RDF>
  </metadata>
  <defs
     id="defs6" />
  <path
     d="M 7.921679,32.726203 C 2.236716,28.895107 0,24.595931 0,17.5 0,6.5665352 6.5665349,0 17.5,0 28.433465,0 35,6.5665352 35,17.5 c 0,7.095931 -2.236716,11.395107 -7.92168,15.226203 -4.768465,3.213468 -14.388175,3.213468 -19.156641,0 z M 26.922606,30.211852 C 37.626316,22.234457 33.886923,4.8366705 20.877197,2.0851673 10.960489,-0.01217538 1.8333329,7.3756945 1.8333329,17.5 c 0,12.906057 14.7805691,20.394851 25.0892731,12.711852 z M 14.681094,19.955149 c -0.783179,-6.61272 0.491171,-10.0106712 3.794155,-9.9551492 4.411326,0.07415 3.406702,3.4557522 1.274751,3.3377192 -1.076692,-0.05961 -1.59322,1.113396 -0.59322,1.176554 3.178401,0.01887 2.82948,3.114964 0.101695,3.114964 -0.55,0 -0.820925,0.01524 -0.777543,3.944916 C 18.510412,24.244042 18.599149,25 17.139291,25 15.649858,25 15.159362,23.993377 14.681094,19.955149 Z"
     id="path22" />
</svg>
