<?xml version="1.0" encoding="UTF-8" standalone="no"?>
<svg
   xmlns:dc="http://purl.org/dc/elements/1.1/"
   xmlns:cc="http://creativecommons.org/ns#"
   xmlns:rdf="http://www.w3.org/1999/02/22-rdf-syntax-ns#"
   xmlns:svg="http://www.w3.org/2000/svg"
   xmlns="http://www.w3.org/2000/svg"
   viewBox="0 0 35 35.136303"
   height="35.136303"
   width="35"
   id="svg2"
   version="1.1">
  <metadata
     id="metadata8">
    <rdf:RDF>
      <cc:Work
         rdf:about="">
        <dc:format>image/svg+xml</dc:format>
        <dc:type
           rdf:resource="http://purl.org/dc/dcmitype/StillImage" />
        <dc:title></dc:title>
      </cc:Work>
    </rdf:RDF>
  </metadata>
  <defs
     id="defs6" />
  <path
     id="path12"
     d="M 7.92168,32.726202 C 2.236717,28.895106 0,24.59593 0,17.499999 0,6.566535 6.566536,0 17.5,0 28.433465,0 35,6.566535 35,17.499999 c 0,7.095931 -2.236716,11.395107 -7.92168,15.226203 -4.768465,3.213468 -14.388175,3.213468 -19.15664,0 z M 26.922606,30.211851 C 37.626316,22.234456 33.886923,4.8366703 20.877197,2.0851671 10.960489,-0.01217538 1.833334,7.3756943 1.833334,17.499999 c 0,12.906057 14.780568,20.394851 25.089272,12.711852 z M 11,21.999999 c 0,-0.55 0.690833,-1 1.535184,-1 1.298487,0 1.341031,-0.346907 0.275931,-2.25 -1.420073,-2.537348 -2.050344,-6.766547 -1.001202,-6.718197 0.379548,0.01749 1.563595,0.692492 2.631217,1.5 C 16.914526,15.402585 18,15.392885 18,13.500002 c 0,-1.047619 1.055556,-1.5 3.5,-1.5 1.925,0 3.5,0.467927 3.5,1.039838 0,2.065932 -3.952281,8.727873 -5.539191,9.336827 C 16.889165,23.3635 11,23.101321 11,22.000002 Z" />
</svg>
