<?xml version="1.0" encoding="UTF-8" standalone="no"?>
<svg
   xmlns:dc="http://purl.org/dc/elements/1.1/"
   xmlns:cc="http://creativecommons.org/ns#"
   xmlns:rdf="http://www.w3.org/1999/02/22-rdf-syntax-ns#"
   xmlns:svg="http://www.w3.org/2000/svg"
   xmlns="http://www.w3.org/2000/svg"
   viewBox="0 0 35 35.136303"
   height="35.136303"
   width="35"
   id="svg2"
   version="1.1">
  <metadata
     id="metadata8">
    <rdf:RDF>
      <cc:Work
         rdf:about="">
        <dc:format>image/svg+xml</dc:format>
        <dc:type
           rdf:resource="http://purl.org/dc/dcmitype/StillImage" />
        <dc:title></dc:title>
      </cc:Work>
    </rdf:RDF>
  </metadata>
  <defs
     id="defs6" />
  <path
     id="path12"
     d="M 7.92168,32.726203 C 2.236717,28.895107 0,24.595931 0,17.5 0,6.5665351 6.566535,0 17.5,0 28.433465,0 35,6.5665351 35,17.5 c 0,7.095931 -2.236716,11.395107 -7.92168,15.226203 -4.768465,3.213468 -14.388175,3.213468 -19.15664,0 z M 26.922606,30.211852 C 37.626316,22.234457 33.886923,4.8366704 20.877197,2.0851672 10.960489,-0.0121754 1.833334,7.3756944 1.833334,17.5 c 0,12.906057 14.780568,20.394851 25.089272,12.711852 z M 12.454545,23.545455 C 7.494354,18.585262 11.009125,10 18,10 24.990875,10 28.505647,18.585262 23.545455,23.545455 21.998217,25.092692 19.948373,26 18,26 16.051627,26 14.001783,25.092692 12.454545,23.545455 Z M 19.984687,23.25 c -0.0084,-0.4125 -0.424125,-1.396064 -0.923784,-2.185698 -0.750006,-1.185267 -1.181493,-1.209111 -2.473677,-0.136693 -0.860863,0.714453 -1.318602,1.698017 -1.017199,2.185698 0.664391,1.075006 4.436202,1.191794 4.41466,0.136693 z M 24,19.940983 C 24,19.423442 23.325,19 22.5,19 20.95359,19 20.513296,20.179963 21.63948,21.306147 22.438411,22.105078 24,21.201961 24,19.940983 Z m -6,-2.3828 c 0,-0.116489 -1.35,-0.01366 -3,0.228509 -2.903634,0.426163 -3.661377,1.218598 -2.385381,2.494593 C 13.112351,20.779018 18,18.307592 18,17.558183 Z m 5.526992,-1.514509 C 23.201919,15.517695 22.275361,15.34084 21.467975,15.650663 19.400862,16.443889 19.644452,17 22.059017,17 c 1.132459,0 1.793048,-0.430347 1.467975,-0.956326 z M 16.361626,14.5 C 16.045044,13.675 15.439267,13 15.015456,13 14.591644,13 13.684689,13.675 13,14.5 c -1.052093,1.267695 -0.843611,1.5 1.34617,1.5 1.892322,0 2.435836,-0.404509 2.015456,-1.5 z m 4.095669,-1.569098 C 20.140864,12.418906 19.178424,12 18.318538,12 c -1.271193,0 -1.332442,0.278321 -0.327676,1.48899 1.291144,1.555733 3.468373,1.063084 2.466433,-0.558088 z" />
</svg>
