<?xml version="1.0" encoding="UTF-8" standalone="no"?>
<svg
   xmlns:dc="http://purl.org/dc/elements/1.1/"
   xmlns:cc="http://creativecommons.org/ns#"
   xmlns:rdf="http://www.w3.org/1999/02/22-rdf-syntax-ns#"
   xmlns:svg="http://www.w3.org/2000/svg"
   xmlns="http://www.w3.org/2000/svg"
   viewBox="0 0 35 35.136303"
   height="35.136303"
   width="35"
   id="svg2"
   version="1.1">
  <metadata
     id="metadata8">
    <rdf:RDF>
      <cc:Work
         rdf:about="">
        <dc:format>image/svg+xml</dc:format>
        <dc:type
           rdf:resource="http://purl.org/dc/dcmitype/StillImage" />
        <dc:title></dc:title>
      </cc:Work>
    </rdf:RDF>
  </metadata>
  <defs
     id="defs6" />
  <path
     id="path12"
     d="M 7.921679,32.726203 C 2.236716,28.895107 0,24.595931 0,17.5 0,6.5665351 6.566535,0 17.5,0 28.433465,0 35,6.5665351 35,17.5 c 0,7.095931 -2.236716,11.395107 -7.92168,15.226203 -4.768465,3.213468 -14.388175,3.213468 -19.156641,0 z M 26.922606,30.211852 C 37.626316,22.234457 33.886923,4.8366704 20.877197,2.0851672 10.960489,-0.0121754 1.833333,7.3756944 1.833333,17.5 c 0,12.906057 14.780569,20.394851 25.089273,12.711852 z M 10,17.5 V 10 H 17.5 25 V 17.5 25 H 17.5 10 Z m 5.686183,4.384187 c -0.9976,-0.580247 -2.206576,-2.029063 -2.686614,-3.219591 -0.768177,-1.905132 -0.880394,-1.775028 -0.936183,1.085404 -0.05658,2.901217 0.231738,3.246737 2.686614,3.219591 2.41303,-0.02668 2.527745,-0.159682 0.936183,-1.085404 z M 22.984687,20.75 c -0.0087,-1.280014 -0.33204,-1.782051 -0.75,-1.164537 C 21.830609,20.182468 20.6,21.181284 19.5,21.805055 c -1.863842,1.056918 -1.812783,1.136198 0.75,1.164536 2.198622,0.02431 2.74693,-0.420719 2.734687,-2.219591 z M 19.812423,17.735492 C 20.21041,15.668912 17.323609,14.276391 15.8,15.8 c -1.523609,1.523609 -0.131088,4.41041 1.935492,4.012423 0.957848,-0.184464 1.892467,-1.119083 2.076931,-2.076931 z M 23,13 c 0,-0.55 -0.45,-1 -1,-1 -0.55,0 -1,0.45 -1,1 0,0.55 0.45,1 1,1 0.55,0 1,-0.45 1,-1 z" />
</svg>
