<?xml version="1.0" encoding="UTF-8" standalone="no"?>
<svg
   xmlns:dc="http://purl.org/dc/elements/1.1/"
   xmlns:cc="http://creativecommons.org/ns#"
   xmlns:rdf="http://www.w3.org/1999/02/22-rdf-syntax-ns#"
   xmlns:svg="http://www.w3.org/2000/svg"
   xmlns="http://www.w3.org/2000/svg"
   viewBox="0 0 35 35.136303"
   height="35.136303"
   width="35"
   id="svg2"
   version="1.1">
  <metadata
     id="metadata8">
    <rdf:RDF>
      <cc:Work
         rdf:about="">
        <dc:format>image/svg+xml</dc:format>
        <dc:type
           rdf:resource="http://purl.org/dc/dcmitype/StillImage" />
        <dc:title></dc:title>
      </cc:Work>
    </rdf:RDF>
  </metadata>
  <defs
     id="defs6" />
  <path
     id="path16"
     d="M 7.92168,32.726203 C 2.236717,28.895107 0,24.595931 0,17.5 0,6.5665351 6.566536,0 17.5,0 c 10.933466,0 17.500001,6.5665351 17.500001,17.5 0,7.095931 -2.236716,11.395107 -7.92168,15.226203 -4.768466,3.213468 -14.388176,3.213468 -19.156641,0 z M 26.922607,30.211852 C 37.626317,22.234457 33.886924,4.8366704 20.877197,2.0851672 10.960489,-0.01217538 1.833334,7.3756944 1.833334,17.5 c 0,12.906057 14.780568,20.394851 25.089273,12.711852 z M 10,23.035184 c 0,-1.080649 0.937159,-2.466369 2.082575,-3.079377 1.914977,-1.024864 1.947572,-1.213277 0.405031,-2.341212 C 11.487968,16.883643 10.949465,15.400318 11.15503,13.943972 11.45544,11.81569 12.081269,11.464469 16,11.224928 c 3.288011,-0.200986 4.096004,-0.0031 3,0.734687 -1.301402,0.876069 -0.908573,1.308397 0.53743,1.321682 1.732344,-0.362363 1.450375,-0.106461 1.783747,-1.29991 0.425503,-1.523272 1.570251,-0.826038 1.561542,1.019067 2.438799,0.214221 2.518295,1.038 0.0047,1.475284 -0.143117,1.996931 -1.202986,2.270245 -1.571282,0.917373 -0.363837,-1.336488 -1.516563,-0.620468 -2.96317,0.825761 -1.625758,1.625333 -1.621126,1.827377 0.08512,3.712755 C 20.397924,22.097183 19.932225,25 17.625004,25 c -0.945435,0 -1.258671,-0.684854 -0.914753,-2 0.39787,-1.521456 0.03068,-2 -1.534603,-2 -2.796088,0 -3.614847,1.645877 -1.44668,2.908131 1.527557,0.889306 1.392972,1.035232 -0.978968,1.06146 C 10.672764,24.992561 10,24.519325 10,23.035184 Z m 5.561547,-9.735391 c -0.464473,-1.210398 -0.918834,-1.342506 -1.751948,-0.509392 -0.833114,0.833114 -0.769255,1.553284 0.246232,2.776871 1.551023,1.868868 2.528261,0.397232 1.505716,-2.267479 z" />
</svg>
