<?xml version="1.0" encoding="UTF-8" standalone="no"?>
<svg
   xmlns:dc="http://purl.org/dc/elements/1.1/"
   xmlns:cc="http://creativecommons.org/ns#"
   xmlns:rdf="http://www.w3.org/1999/02/22-rdf-syntax-ns#"
   xmlns:svg="http://www.w3.org/2000/svg"
   xmlns="http://www.w3.org/2000/svg"
   viewBox="0 0 35 35.136303"
   height="35.136303"
   width="35"
   id="svg2"
   version="1.1">
  <metadata
     id="metadata8">
    <rdf:RDF>
      <cc:Work
         rdf:about="">
        <dc:format>image/svg+xml</dc:format>
        <dc:type
           rdf:resource="http://purl.org/dc/dcmitype/StillImage" />
        <dc:title></dc:title>
      </cc:Work>
    </rdf:RDF>
  </metadata>
  <defs
     id="defs6" />
  <path
     id="path12"
     d="M 7.921679,32.726203 C 2.236716,28.895107 0,24.595931 0,17.5 0,6.5665352 6.566535,0 17.5,0 28.433465,0 35,6.5665352 35,17.5 c 0,7.095931 -2.236716,11.395107 -7.92168,15.226203 -4.768465,3.213468 -14.388175,3.213468 -19.156641,0 z M 26.922606,30.211852 C 37.626316,22.234457 33.886923,4.8366705 20.877197,2.0851672 10.960489,-0.0121754 1.833333,7.3756945 1.833333,17.5 c 0,12.906057 14.780569,20.394851 25.089273,12.711852 z M 9.049435,17.75 l 0.0798,-5.472458 8.398305,-0.142137 8.472458,-0.21629 V 17.459558 23 h -8.55226 -8.55226 z M 19.835646,17.636012 C 19.651041,17.524941 18.7125,16.8313 17.75,16.094588 16.186313,14.897717 16,15.038054 16,17.412739 c 0,2.384129 0.214636,2.542759 2.085646,1.541424 1.147106,-0.613912 1.934606,-1.20708 1.75,-1.318151 z" />
</svg>
