<?xml version="1.0" encoding="UTF-8" standalone="no"?>
<svg
   xmlns="http://www.w3.org/2000/svg"
   viewBox="0 0 235.00221 228.65553"
   height="228.65553"
   width="235.00221"
   id="svg2"
   version="1.1">
  <metadata
     id="metadata8">
    <rdf:RDF>
      <cc:Work
         rdf:about="">
        <dc:format>image/svg+xml</dc:format>
        <dc:type
           rdf:resource="http://purl.org/dc/dcmitype/StillImage" />
        <dc:title></dc:title>
      </cc:Work>
    </rdf:RDF>
  </metadata>
  <defs
     id="defs6" />
  <g
     transform="translate(0.00110799,-0.34447467)"
     id="g14">
    <path
       id="path28"
       d="m 142,209.62244 c 0,-0.20765 0.7875,-0.99515 1.75,-1.75 1.58606,-1.24387 1.62143,-1.2085 0.37756,0.37756 C 142.82119,209.91575 142,210.44548 142,209.62244 Z m 44,-27.3287 c 26.40195,-0.70782 49.00212,-0.72799 49.00111,-0.0437 -6.1e-4,0.4125 -13.38861,0.65443 -29.75111,0.53762 -16.3625,-0.11681 -25.025,-0.33906 -19.25,-0.49388 z"
       style="fill:#a6ddde" />
    <path
       id="path26"
       d="m 170.57143,166.42857 c -0.36782,-1.46551 -0.47591,-2.85742 -0.24019,-3.09314 0.23571,-0.23571 0.72951,0.77049 1.09733,2.236 0.36782,1.46551 0.47591,2.85742 0.24019,3.09314 -0.23571,0.23571 -0.72951,-0.77049 -1.09733,-2.236 z m -9.48052,-29.51948 c -0.67624,-2.25709 -1.04544,-4.28789 -0.82044,-4.51289 0.225,-0.225 0.96238,1.43762 1.63862,3.69471 0.67624,2.25709 1.04544,4.28789 0.82044,4.51289 -0.225,0.225 -0.96238,-1.43762 -1.63862,-3.69471 z m -9.51948,-29.48052 c -0.36782,-1.46551 -0.47591,-2.85742 -0.24019,-3.09314 0.23571,-0.23571 0.72951,0.77049 1.09733,2.236 0.36782,1.46551 0.47591,2.85742 0.24019,3.09314 -0.23571,0.23571 -0.72951,-0.77049 -1.09733,-2.236 z m -9.48052,-29.519479 c -0.67624,-2.257092 -1.04544,-4.287895 -0.82044,-4.512895 0.225,-0.225 0.96238,1.437621 1.63862,3.694713 0.67624,2.257092 1.04544,4.287895 0.82044,4.512895 -0.225,0.225 -0.96238,-1.437621 -1.63862,-3.694713 z m -9.51948,-29.48052 c -0.36782,-1.465513 -0.47591,-2.857426 -0.24019,-3.09314 0.23571,-0.235714 0.72951,0.770485 1.09733,2.235998 0.36782,1.465513 0.47591,2.857426 0.24019,3.09314 -0.23571,0.235714 -0.72951,-0.770485 -1.09733,-2.235998 z m -10,-31 c -0.36782,-1.465513 -0.47591,-2.857426 -0.24019,-3.09314 0.23571,-0.235714 0.72951,0.770485 1.09733,2.235998 0.36782,1.465513 0.47591,2.857426 0.24019,3.09314 -0.23571,0.235714 -0.72951,-0.770485 -1.09733,-2.235998 z M 118,2.940983 c 0,-0.5824593 0.45,-0.7809017 1,-0.440983 0.55,0.3399187 1,0.8164763 1,1.059017 C 120,3.8015576 119.55,4 119,4 118.45,4 118,3.5234424 118,2.940983 Z"
       style="fill:#67c7c8" />
    <path
       id="path24"
       d="m 173.49735,172.75 c -1.54984,-5.0875 -3.08327,-9.475 -3.40762,-9.75 -0.32435,-0.275 -0.63721,-1.175 -0.69524,-2 -0.1406,-1.99897 -17.63245,-56.35979 -18.34107,-57 -0.30438,-0.275 -0.6009,-1.175 -0.65893,-2 -0.1406,-1.99897 -17.63245,-56.359786 -18.34107,-57 -0.30438,-0.275 -0.60339,-1.175 -0.66447,-2 -0.19957,-2.695564 -8.79561,-28.491072 -9.60906,-28.83541 -0.43579,-0.184476 -0.5676,-0.69906 -0.29291,-1.143521 0.27469,-0.444461 -0.19073,-2.764247 -1.03426,-5.1550811 C 119.60918,5.475154 119.32194,3.9647383 119.81439,4.5095086 120.30685,5.0542789 145.59934,44.2 176.01993,91.5 c 30.42058,47.3 55.96264,87.0125 56.76012,88.25 l 1.44997,2.25 h -28.95739 -28.95738 z"
       style="fill:#51c2bf" />
    <path
       id="path22"
       d="M 118.07895,115.8361 C 118.12237,54.051246 118.33813,3.95 118.55842,4.5 c 1.07903,2.6940566 57.32392,177.94133 57.14667,178.05705 -0.1128,0.0736 -10.33009,8.14662 -22.70509,17.93995 -12.375,9.79332 -25.3125,20.0266 -28.75,22.74062 l -6.25,4.93459 0.079,-112.33611 z"
       style="fill:#45a2cb" />
    <path
       id="path20"
       d="M 116.75842,114.90444 C 116.61629,52.151877 116.8375,0.60031923 117.25,0.3454197 117.6625,0.09052017 118,51.433524 118,114.44098 118,177.44844 117.77879,229 117.50842,229 c -0.27037,0 -0.60787,-51.343 -0.75,-114.09556 z M -0.00110796,182.25 c -6.0937e-4,-0.4125 8.66189066,-0.63475 19.24999996,-0.49388 36.723419,0.48858 40.099492,0.8202 10.501108,1.0315 C 13.3875,182.90443 -4.9858007e-4,182.6625 -0.00110796,182.25 Z"
       style="fill:#626e96" />
    <path
       id="path18"
       d="M 87.791419,205.22367 C 72.0017,192.72565 59.0642,182.03967 59.041419,181.47705 59.018639,180.91443 71.613219,141.31443 87.029375,93.477048 102.44553,45.639672 115.18394,5.7240964 115.33694,4.7757697 116.69394,-3.6350442 117,16.619021 117,114.83333 c 0,62.24167 -0.1125,113.15482 -0.25,113.14034 -0.1375,-0.0145 -13.16886,-10.25198 -28.958581,-22.75 z"
       style="fill:#2f225d" />
    <path
       id="path16"
       d="M 1.6222124,180.75 C 3.8383637,177.00775 114.40259,5.3555324 115.07905,4.6069663 115.96087,3.6311542 115.91613,3.7724666 81.945449,109.25 L 58.515181,182 H 29.698574 C 6.9171562,182 1.0369991,181.73821 1.6222124,180.75 Z"
       style="fill:#120f2c" />
  </g>
</svg>
