<?xml version="1.0" encoding="UTF-8" standalone="no"?>
<svg
   xmlns="http://www.w3.org/2000/svg"
   viewBox="0 0 44.320128 49"
   id="svg2"
   version="1.1">
  <metadata
     id="metadata8">
    <rdf:RDF>
      <cc:Work
         rdf:about="">
        <dc:format>image/svg+xml</dc:format>
        <dc:type
           rdf:resource="http://purl.org/dc/dcmitype/StillImage" />
        <dc:title></dc:title>
      </cc:Work>
    </rdf:RDF>
  </metadata>
  <defs
     id="defs6" />
  <path
     id="path12"
     d="M 16.116411,43 C 10.923333,37.048852 10.836409,37 5.440352,37 2.448158,37 0,36.710355 0,36.356344 0,36.002332 2.188823,32.064832 4.864051,27.606344 7.539278,23.147855 12.342762,15.1125 15.538456,9.7499997 18.734151,4.3875 21.718235,0 22.169752,0 22.890967,0 44.320131,35.347431 44.320131,36.537074 44.320131,36.791683 41.858251,37 38.849287,37 c -5.431002,0 -5.509125,0.04369 -10.727453,6 -2.891136,3.3 -5.597059,6 -6.013163,6 -0.416104,0 -3.112621,-2.7 -5.99226,-6 z M 27.94365,41.75 33.154779,36.5 28.642442,22.105428 C 26.160657,14.188414 22.059466,4.484383 22.287508,4.257988 22.637684,3.910341 26.534429,11.864689 33.12119,33 c 0.643729,2.065571 1.509416,2.553434 4.981754,2.807498 2.311449,0.169124 4.202635,0.0027 4.202635,-0.369831 0,-0.372531 -3.110826,-5.910905 -6.912945,-12.307498 C 31.590514,16.733576 27.755837,10.094697 26.87113,8.377104 24.950415,4.64818 21.901083,3.585435 19.646729,5.859275 18.069986,7.449647 2.014551,34.416486 2.014551,35.474424 c 0,1.151957 8.142893,0.460923 8.536352,-0.724424 0.228205,-0.6875 2.318982,-7.325 4.646172,-14.75 2.327189,-7.425 6.571724,-16.003762 6.772006,-15.444661 0.200281,0.559101 -3.819657,10.22152 -6.272904,17.852787 l -4.46045,13.87503 5.104644,5.358422 C 19.147925,44.58871 21.734704,47 22.088767,47 c 0.354065,0 2.988762,-2.3625 5.854883,-5.25 z M 22.088767,47 c -1.061592,-1.053924 -1.014778,-40.852994 0.0713,-42.521437 0.648691,-0.996527 0.25607,8.890597 0.266317,22.011535 0.0085,10.8625 0.267407,20.790425 0.08274,20.790425 -0.184668,0 -0.05102,0.08614 -0.420357,-0.280523 z" />
</svg>
