<?xml version="1.0" encoding="UTF-8" standalone="no"?>
<svg
   xmlns="http://www.w3.org/2000/svg"
   viewBox="0 0 100 99.977875"
   height="99.977875"
   width="100"
   id="svg2"
   version="1.1">
  <metadata
     id="metadata8">
    <rdf:RDF>
      <cc:Work
         rdf:about="">
        <dc:format>image/svg+xml</dc:format>
        <dc:type
           rdf:resource="http://purl.org/dc/dcmitype/StillImage" />
        <dc:title></dc:title>
      </cc:Work>
    </rdf:RDF>
  </metadata>
  <defs
     id="defs6" />
  <path
     id="path12"
     d="M 34.797697,98.069201 C 13.398142,91.226928 0,72.718867 0,50.000004 0,21.257848 21.257844,0 50,0 78.742156,0 100,21.257848 100,50.000004 100,72.704385 86.405503,91.470237 65.216795,98.014762 56.81278,100.6105 42.824031,100.63554 34.797697,98.069201 Z M 63,94.335289 C 95.710015,85.458245 107.1266,43.705226 83.771766,18.368226 65.972648,-0.94153999 34.027352,-0.94153999 16.228234,18.368226 -9.3627963,46.131215 6.6175879,90.726476 44,95.86881 c 6.523704,0.897402 11.532081,0.493168 19,-1.533521 z M 35,49.500004 c 0,-22.10681 0.03627,-22.5 2.075687,-22.5 1.141628,0 9.466628,4.588681 18.5,10.197069 C 68.56269,45.260081 72,47.844605 72,49.546562 c 0,1.703171 -3.423414,4.271012 -16.402117,12.30293 -9.021165,5.582782 -17.346165,10.150512 -18.5,10.150512 -2.068351,0 -2.097883,-0.316732 -2.097883,-22.5 z m 18.611796,8.322249 C 60.999782,53.324489 66.696985,49.341464 66.272249,48.971085 65.140666,47.984323 39.972405,33.000004 39.446582,33.000004 c -0.24562,0 -0.446582,7.425 -0.446582,16.5 0,9.075 0.265296,16.5 0.589547,16.5 0.324252,0 6.634264,-3.679988 14.022249,-8.177751 z" />
</svg>
