<?xml version="1.0" encoding="UTF-8" standalone="no"?>
<svg
   xmlns:dc="http://purl.org/dc/elements/1.1/"
   xmlns:cc="http://creativecommons.org/ns#"
   xmlns:rdf="http://www.w3.org/1999/02/22-rdf-syntax-ns#"
   xmlns:svg="http://www.w3.org/2000/svg"
   xmlns="http://www.w3.org/2000/svg"
   viewBox="0 0 127.75008 127.79785"
   height="50.79785"
   width="50.75008"
   id="svg2"
   version="1.1">
  <metadata
     id="metadata8">
    <rdf:RDF>
      <cc:Work
         rdf:about="">
        <dc:format>image/svg+xml</dc:format>
        <dc:type
           rdf:resource="http://purl.org/dc/dcmitype/StillImage" />
        <dc:title></dc:title>
      </cc:Work>
    </rdf:RDF>
  </metadata>
  <defs
     id="defs6" />
  <path
     id="path12"
     d="M 49.999848,126.37268 C 26.644738,121.30629 6.2455179,100.76398 1.3873179,77.419163 -8.0509821,32.06595 32.138158,-8.1506322 77.331478,1.4231384 111.38771,8.6376224 133.56949,42.989114 126.40438,77.419163 119.3437,111.34739 84.284878,133.81009 49.999848,126.37268 Z m 26.26494,-12.9614 C 108.63607,104.97963 123.97333,70.771021 109.13797,40.090121 105.56625,32.703469 95.111538,22.248765 87.724888,18.677042 66.641528,8.4824499 43.804848,12.010157 27.895848,27.919163 c -27.90515009,27.905142 -15.07674,75.139107 23.20581,85.443377 7.02227,1.89014 18.0118,1.91142 25.16313,0.0487 z M 51.680458,83.134548 C 37.500468,68.954553 35.895848,67.004824 35.895848,63.955113 c 0,-3.044302 1.62199,-5.028299 15.70931,-19.215384 14.694,-14.798066 15.95064,-15.820566 19.44329,-15.820566 2.72498,0 4.15465,0.600573 5.29069,2.222506 3.28704,4.6929 2.24323,6.561633 -11.17887,20.01359 l -12.73557,12.763904 12.73557,12.763904 c 13.4221,13.451957 14.46591,15.32069 11.17887,20.01359 -1.12632,1.608046 -2.56822,2.222506 -5.21538,2.222506 -3.39039,0 -4.8162,-1.157517 -19.4433,-15.784615 z" />
</svg>
