<?xml version="1.0" encoding="UTF-8" standalone="no"?>
<svg
   xmlns:dc="http://purl.org/dc/elements/1.1/"
   xmlns:cc="http://creativecommons.org/ns#"
   xmlns:rdf="http://www.w3.org/1999/02/22-rdf-syntax-ns#"
   xmlns:svg="http://www.w3.org/2000/svg"
   xmlns="http://www.w3.org/2000/svg"
   viewBox="0 0 127.75007 127.79786"
   height="50.79786"
   width="50.75007"
   id="svg2"
   version="1.1">
  <metadata
     id="metadata8">
    <rdf:RDF>
      <cc:Work
         rdf:about="">
        <dc:format>image/svg+xml</dc:format>
        <dc:type
           rdf:resource="http://purl.org/dc/dcmitype/StillImage" />
        <dc:title></dc:title>
      </cc:Work>
    </rdf:RDF>
  </metadata>
  <defs
     id="defs6" />
  <path
     id="path12"
     d="M 49.999848,126.37269 C 26.644738,121.3063 6.2455179,100.76398 1.3873179,77.419164 -8.0509821,32.065951 32.138158,-8.1506314 77.331478,1.4231381 111.38771,8.6376226 133.56949,42.989115 126.40438,77.419164 119.3437,111.3474 84.284878,133.8101 49.999848,126.37269 Z m 26.26494,-12.9614 C 108.63607,104.97964 123.97333,70.771022 109.13797,40.090122 105.56625,32.70347 95.111538,22.248766 87.724888,18.677043 66.641528,8.4824501 43.804848,12.010157 27.895848,27.919164 c -27.9051501,27.905142 -15.07674,75.139116 23.20581,85.443386 7.02227,1.89014 18.0118,1.91142 25.16313,0.0487 z M 51.452548,96.696658 c -3.28703,-4.6929 -2.24323,-6.561633 11.17887,-20.01359 L 75.366988,63.919164 62.631418,51.15526 c -13.4221,-13.451957 -14.4659,-15.32069 -11.17887,-20.01359 1.13605,-1.621933 2.56571,-2.222506 5.29069,-2.222506 3.49265,0 4.74929,1.0225 19.44329,15.820566 14.08732,14.187085 15.70932,16.171082 15.70932,19.215384 0,3.049711 -1.60462,4.99944 -15.78462,19.179435 -14.6271,14.627098 -16.05291,15.784615 -19.44329,15.784615 -2.64716,0 -4.08907,-0.61446 -5.21539,-2.222506 z" />
</svg>
